<?xml version="1.0" encoding="iso-8859-1"?>
<!-- Generator: Adobe Illustrator 17.1.0, SVG Export Plug-In . SVG Version: 6.00 Build 0)  -->
<!DOCTYPE svg PUBLIC "-//W3C//DTD SVG 1.1//EN" "http://www.w3.org/Graphics/SVG/1.1/DTD/svg11.dtd">
<svg version="1.1" id="Layer_1" xmlns="http://www.w3.org/2000/svg" xmlns:xlink="http://www.w3.org/1999/xlink" x="0px" y="0px"
	 viewBox="0 0 107.52 104.289" style="enable-background:new 0 0 107.52 104.289;" xml:space="preserve">
<g fill="#61ABEB">
	<path d="M94.078,30.278H84V12.11C84,7.403,82.32,0,70.895,0h-57.79C1.68,0,0,7.403,0,12.11v30.277
		C0,48.442,3.695,53.153,9.742,54.5L9.406,71.656c0,1.344,0.672,2.692,2.02,3.028c0.336,0.336,1.008,0.336,1.344,0.336
		c0.671,0,1.679-0.336,2.015-0.672l8.735-7.067c0,11.106,9.074,16.825,17.472,16.825h22.512l19.488,19.172
		c0.672,0.675,1.344,1.011,2.352,1.011c1.679,0,3.359-1.683,3.359-3.699V83.766h5.375c7.731,0,13.442-6.391,13.442-15.137V42.051
		C107.52,37.68,105.84,30.278,94.078,30.278L94.078,30.278z M27.215,33.641C27.215,33.641,26.879,33.641,27.215,33.641H20.16
		c-2.015,0-3.359,1.347-3.359,3.363c0,2.02,1.344,3.367,3.359,3.367h3.36v18.164l-7.391,6.055l0.336-12.781
		c0-1.684-1.344-3.367-3.024-3.367c-6.722-0.672-6.722-4.707-6.722-6.055V12.11c0-3.028,0.336-5.379,6.386-5.379h57.454
		c5.714,0,6.722,1.679,6.722,5.379v18.168H37.633C33.266,30.278,29.566,31.625,27.215,33.641L27.215,33.641z M100.801,68.965
		c0,4.035-2.016,8.41-6.723,8.41h-9.07c-1.008,0-1.68,0.336-2.352,1.012c-0.672,0.672-1.008,1.344-1.008,2.351v11.778L67.199,78.383
		c-0.672-0.672-1.344-1.008-2.351-1.008H40.992c-3.695,0-10.754-2.019-10.754-10.094V41.715c0-4.375,6.387-4.711,7.395-4.711h56.445
		c6.051,0,6.723,2.356,6.723,5.047V68.965z M100.801,68.965"/>
	<path d="M87.359,60.555h-40.32c-2.016,0-3.359,1.344-3.359,3.363c0,2.02,1.343,3.363,3.359,3.363h40.32
		c2.016,0,3.36-1.343,3.36-3.363C90.719,61.899,89.375,60.555,87.359,60.555L87.359,60.555z M87.359,60.555"/>
	<path d="M87.359,47.098H77.281c-2.015,0-3.359,1.344-3.359,3.363c0,2.02,1.344,3.363,3.359,3.363h10.078
		c2.016,0,3.36-1.343,3.36-3.363C90.719,48.442,89.375,47.098,87.359,47.098L87.359,47.098z M87.359,47.098"/>
	<path d="M47.039,53.828H63.84c2.015,0,3.359-1.347,3.359-3.367c0-2.015-1.344-3.363-3.359-3.363H47.039
		c-2.016,0-3.359,1.348-3.359,3.363C43.68,52.481,45.023,53.828,47.039,53.828L47.039,53.828z M47.039,53.828"/>
	<path d="M23.52,20.184h-3.36c-2.015,0-3.359,1.347-3.359,3.363c0,2.02,1.344,3.367,3.359,3.367h3.36
		c2.015,0,3.359-1.347,3.359-3.367C26.879,21.531,25.535,20.184,23.52,20.184L23.52,20.184z M23.52,20.184"/>
	<path d="M43.68,26.914h16.8c2.016,0,3.36-1.347,3.36-3.367c0-2.016-1.344-3.363-3.36-3.363h-16.8c-2.016,0-3.36,1.347-3.36,3.363
		C40.32,25.567,41.664,26.914,43.68,26.914L43.68,26.914z M43.68,26.914"/>
</g>
</svg>
