<?xml version="1.0" encoding="iso-8859-1"?>
<!-- Generator: Adobe Illustrator 17.1.0, SVG Export Plug-In . SVG Version: 6.00 Build 0)  -->
<!DOCTYPE svg PUBLIC "-//W3C//DTD SVG 1.1//EN" "http://www.w3.org/Graphics/SVG/1.1/DTD/svg11.dtd">
<svg version="1.1" id="Layer_1" xmlns="http://www.w3.org/2000/svg" xmlns:xlink="http://www.w3.org/1999/xlink" x="0px" y="0px"
	 viewBox="0 0 392.535 392.531" style="enable-background:new 0 0 392.535 392.531;" xml:space="preserve">
<g fill="#61ABEB">
	<path d="M196.266,0C88.039,0,0,88.047,0,196.265C0,304.48,88.039,392.531,196.266,392.531
		c108.234,0,196.269-88.051,196.269-196.266C392.535,88.047,304.5,0,196.266,0L196.266,0z M196.266,353.039
		c-86.45,0-156.774-70.336-156.774-156.774c0-86.441,70.324-156.777,156.774-156.777c86.457,0,156.777,70.336,156.777,156.777
		C353.043,282.703,282.723,353.039,196.266,353.039L196.266,353.039z M196.266,353.039"/>
	<path d="M268.449,210.469l-40.953-20.618c-1.519-7.433-5.723-13.808-11.445-18.386V87.726c0-10.902-8.844-19.75-19.746-19.75
		c-10.914,0-19.746,8.848-19.746,19.75v83.715c-7.329,5.836-12.086,14.731-12.086,24.824c0,17.559,14.168,31.844,31.793,31.844
		c4.796,0,9.296-1.133,13.371-3.023l41.058,20.66c2.844,1.441,5.879,2.109,8.86,2.109c7.222,0,14.191-3.972,17.664-10.875
		C282.117,227.25,278.199,215.367,268.449,210.469L268.449,210.469z M268.449,210.469"/>
	<path d="M196.074,303.496c-9.437,0-17.058,7.621-17.058,17.043c0,9.426,7.621,17.047,17.058,17.047
		c9.41,0,17.051-7.621,17.051-17.047C213.121,311.117,205.484,303.496,196.074,303.496L196.074,303.496z M196.074,303.496"/>
	<path d="M71.891,179.32c-9.426,0-17.051,7.625-17.051,17.047c0,9.426,7.625,17.047,17.051,17.047
		c9.421,0,17.047-7.621,17.047-17.047C88.938,186.945,81.312,179.32,71.891,179.32L71.891,179.32z M71.891,179.32"/>
	<path d="M320.223,179.347c-9.422,0-17.047,7.625-17.047,17.047c0,9.422,7.625,17.047,17.047,17.047s17.043-7.621,17.043-17.047
		C337.266,186.972,329.645,179.347,320.223,179.347L320.223,179.347z M320.223,179.347"/>
</g>
</svg>
