<?xml version="1.0" encoding="iso-8859-1"?>
<!-- Generator: Adobe Illustrator 17.1.0, SVG Export Plug-In . SVG Version: 6.00 Build 0)  -->
<!DOCTYPE svg PUBLIC "-//W3C//DTD SVG 1.1//EN" "http://www.w3.org/Graphics/SVG/1.1/DTD/svg11.dtd">
<svg version="1.1" id="Layer_1" xmlns="http://www.w3.org/2000/svg" xmlns:xlink="http://www.w3.org/1999/xlink" x="0px" y="0px"
	 viewBox="0 0 76.609 76.703" style="enable-background:new 0 0 76.609 76.703;" xml:space="preserve">
<g fill="#61ABEB">
	<path  d="M38.305,0C17.137,0,0,17.156,0,38.351c0,21.195,17.137,38.352,38.305,38.352s38.304-17.157,38.304-38.352
		C76.609,17.156,59.473,0,38.305,0L38.305,0z M38.305,69.972c-17.473,0-31.586-14.129-31.586-31.621
		c0-17.496,14.113-31.625,31.586-31.625c17.472,0,31.582,14.133,31.582,31.625C69.887,55.843,55.777,69.972,38.305,69.972
		L38.305,69.972z M38.305,69.972"/>
	<path d="M51.07,25.902L33.266,43.734l-8.403-8.41c-1.343-1.348-3.359-1.348-4.703,0c-1.344,1.344-1.344,3.363,0,4.707l10.75,10.765
		c0.676,0.676,1.684,1.012,2.356,1.012c0.672,0,1.679-0.336,2.351-1.012l20.16-20.183c1.344-1.344,1.344-3.363,0-4.711
		C54.434,24.558,52.414,24.558,51.07,25.902L51.07,25.902z M51.07,25.902"/>
</g>
</svg>
