<?xml version="1.0" encoding="iso-8859-1"?>
<!-- Generator: Adobe Illustrator 17.1.0, SVG Export Plug-In . SVG Version: 6.00 Build 0)  -->
<!DOCTYPE svg PUBLIC "-//W3C//DTD SVG 1.1//EN" "http://www.w3.org/Graphics/SVG/1.1/DTD/svg11.dtd">
<svg version="1.1" id="Layer_1" xmlns="http://www.w3.org/2000/svg" xmlns:xlink="http://www.w3.org/1999/xlink" x="0px" y="0px"
	 viewBox="0 0 258.174 256.278" style="enable-background:new 0 0 258.174 256.278;" xml:space="preserve">
<g fill="#61ABEB">
	<path d="M252.47,43.658l-11.401-11.401c-7.593-7.604-18.993-7.604-26.598,0L180.316,66.46L123.358,0H19.005C8.53,0,0,8.53,0,19.005
		v218.268c0,10.428,8.53,19.005,19.005,19.005h142.364c10.417,0,18.946-8.577,18.946-19.005v-94.909l72.154-72.107
		C260.075,62.652,260.075,51.251,252.47,43.658L252.47,43.658z M123.358,14.225l44.631,52.235h-35.128
		c-4.721,0-9.503-4.781-9.503-9.503V14.225z M170.813,237.273c0,4.722-3.797,9.502-9.444,9.502H19.005
		c-4.781,0-9.503-3.808-9.503-9.502V19.005c0-4.781,3.796-9.503,9.503-9.503h94.909v47.455c0,10.428,8.518,18.946,18.946,18.946
		h37.952l-94.91,94.91l-9.443,47.454l47.455-9.443l56.898-56.957V237.273z M84.481,176.519l23.727,23.727l-29.422,5.695
		L84.481,176.519z M115.813,193.615l-24.7-24.7l106.31-106.263l24.653,24.653L115.813,193.615z M245.803,63.577l-16.134,16.134
		l-24.653-24.653l16.134-16.134c3.797-3.796,9.491-3.796,13.3,0l11.353,11.353C249.599,54.086,249.599,59.781,245.803,63.577
		L245.803,63.577z M245.803,63.577"/>
</g>
</svg>
