<?xml version="1.0" encoding="iso-8859-1"?>
<!-- Generator: Adobe Illustrator 17.1.0, SVG Export Plug-In . SVG Version: 6.00 Build 0)  -->
<!DOCTYPE svg PUBLIC "-//W3C//DTD SVG 1.1//EN" "http://www.w3.org/Graphics/SVG/1.1/DTD/svg11.dtd">
<svg version="1.1" id="Capa_1" xmlns="http://www.w3.org/2000/svg" xmlns:xlink="http://www.w3.org/1999/xlink" x="0px" y="0px"
	 viewBox="-33 157 480 480" style="enable-background:new -33 157 480 480;" xml:space="preserve">
<g fill="#61ABEB">
	<path d="M191,405h-8v16h8c30.913-0.035,55.965-25.087,56-56v-88c0-66.274-53.726-120-120-120S7,210.726,7,277v88
		c0.035,30.913,25.087,55.965,56,56h8v-16h-8c-22.08-0.026-39.974-17.92-40-40v-88c0-57.438,46.562-104,104-104s104,46.562,104,104
		v88C230.974,387.08,213.08,404.974,191,405z"/>
	<path d="M38.776,524.824l-13.512-8.576l-5.848,9.216c-17.687,27.872-16.374,63.76,3.304,90.264V637h16v-24
		c0.001-1.817-0.617-3.581-1.752-5c-17.008-21.262-18.631-50.98-4.04-73.968L38.776,524.824z"/>
	<path d="M407,157H303c-22.08,0.026-39.974,17.92-40,40v80c0.026,22.08,17.92,39.974,40,40h16v32
		c-0.001,3.235,1.947,6.153,4.936,7.392c0.971,0.405,2.012,0.611,3.064,0.608c2.122,0,4.156-0.844,5.656-2.344L370.312,317H407
		c22.08-0.026,39.974-17.92,40-40v-80C446.974,174.92,429.08,157.026,407,157z M431,277c0,13.255-10.745,24-24,24h-40
		c-2.122,0-4.156,0.844-5.656,2.344L335,329.688V309c0-4.418-3.582-8-8-8h-24c-13.255,0-24-10.745-24-24v-80
		c0-13.255,10.745-24,24-24h104c13.255,0,24,10.745,24,24V277z"/>
	<rect x="303" y="197" width="56" height="16"/>
	<rect x="375" y="197" width="32" height="16"/>
	<rect x="303" y="229" width="104" height="16"/>
	<rect x="303" y="261" width="56" height="16"/>
	<path d="M215.28,613v24h16v-21.272c19.678-26.504,20.991-62.392,3.304-90.264l-5.848-9.216l-13.512,8.576l5.848,9.216
		c14.592,22.985,12.969,52.701-4.04,73.96C215.897,609.419,215.279,611.183,215.28,613z"/>
	<path d="M-17,493c0.026-22.08,17.92-39.974,40-40h25.456l72.04,100.656c1.48,2.069,3.856,3.31,6.4,3.344H127
		c2.518,0,4.889-1.186,6.4-3.2l76-100.8H231c22.08,0.026,39.974,17.92,40,40v64c0.004,4.418,3.589,7.997,8.007,7.993
		c2.902-0.003,5.575-1.576,6.985-4.113L323.704,493h45.864l-78,144h18.2L387.8,493h3.2c30.913-0.035,55.965-25.087,56-56
		c0-4.418-3.582-8-8-8h-72c-30.016,0.035-54.666,23.729-55.888,53.72L287,526.128V493c-0.035-30.913-25.087-55.965-56-56h-29.24
		l-0.216-0.168L201.4,437H183c-8.837,0-16-7.163-16-16v-18.824c24.719-14.272,39.962-40.633,40-69.176v-64
		c-0.012-13.255-3.31-26.3-9.6-37.968c-2.015-3.712-6.569-5.219-10.4-3.44L51.592,291.304c-2.804,1.32-4.593,4.141-4.592,7.24V333
		c0.038,28.543,15.281,54.904,40,69.176V421c0,8.837-7.163,16-16,16H23c-30.913,0.035-55.965,25.087-56,56v144h16V493z M367,445
		h63.2c-3.825,18.613-20.198,31.979-39.2,32h-63.2C331.625,458.387,347.998,445.021,367,445z M127.168,535.496L102.48,501h50.688
		L127.168,535.496z M63,333v-29.376l123.528-58.128C189.483,252.98,191,260.954,191,269v64c0,35.346-28.654,64-64,64
		S63,368.346,63,333z M71,453c17.673,0,32-14.327,32-32v-11.688c15.622,4.917,32.378,4.917,48,0V421c0,17.673,14.327,32,32,32h6.4
		l-24.128,32H91l-22.904-32H71z"/>
</g>
</svg>
