<?xml version="1.0" encoding="iso-8859-1"?>
<!-- Generator: Adobe Illustrator 17.1.0, SVG Export Plug-In . SVG Version: 6.00 Build 0)  -->
<!DOCTYPE svg PUBLIC "-//W3C//DTD SVG 1.1//EN" "http://www.w3.org/Graphics/SVG/1.1/DTD/svg11.dtd">
<svg version="1.1" id="Layer_1" xmlns="http://www.w3.org/2000/svg" xmlns:xlink="http://www.w3.org/1999/xlink" x="0px" y="0px"
	 viewBox="0 0 349.199 383.734" style="enable-background:new 0 0 349.199 383.734;" xml:space="preserve">
<g fill="#61ABEB">
	<path d="M343.199,371.734h-14.601v-52.125c0-1.441-0.516-2.832-1.457-3.922l-15.203-17.601c-1.137-1.321-2.797-2.078-4.54-2.078
		h-26.179c-19.028-19.875-43.653-19.93-44.645-19.93H206.52V257.89c0-0.316-0.032-0.628-0.082-0.929
		c19.246-7.953,31.41-21.219,38.816-32.719c5.035-7.82,8.371-15.512,10.539-21.758c5.168,9.348,12.047,15.957,20.574,19.735
		c5.844,2.585,11.852,3.55,17.559,3.55c16.246-0.004,30.086-7.808,30.863-8.254c2.523-1.453,3.676-4.515,2.684-7.253
		c-0.996-2.739-3.778-4.379-6.649-3.868c-0.277,0.039-6.832,0.965-11.558-4.265c-9.758-10.793-4.727-37.657-0.856-52.707
		c13.715-53.383,9.641-102.785-10.637-128.93C287.379,7.086,272.996,0,256.188,0c-18.653,0-32.891,5.027-42.317,14.949
		c-6.648,6.996-9.422,14.977-10.566,20.836c-8.653-2.5-18.16-3.777-28.52-3.777c-42.98,0-63.922,22.625-73.918,41.605
		c-10.648,20.215-11.222,40.219-11.242,41.059c0,0.062,0,0.121,0,0.179v19.516c-3.852,0.27-8.633,1.273-12.41,4.219
		c-3.41,2.656-5.457,6.453-5.918,10.98c-0.606,5.942-1.102,20.781,7.394,30.188c2.946,3.258,6.661,5.441,10.934,6.465v1.253
		c0,0.29,0.02,0.579,0.063,0.864c0.105,0.722,2.71,17.976,14.253,35.906c7.407,11.5,19.571,24.766,38.817,32.719
		c-0.047,0.301-0.078,0.613-0.078,0.929v18.188h-30.016c-0.98-0.012-24.695,0.039-43.566,18.777
		c-14.809,14.703-22.317,36.434-22.317,64.586v12.293H6c-3.312,0-6,2.688-6,6c0,3.313,2.688,6,6,6h337.199c3.313,0,6-2.687,6-6
		C349.199,374.422,346.512,371.734,343.199,371.734L343.199,371.734z M299.801,308.008v10.488c0,3.316,2.683,6,6,6h10.797v47.238
		H239v-63.726H299.801z M205.629,305.687l-8.184,5.004c-0.527,0.324-1.004,0.723-1.406,1.192l-4.258,4.918l-10.636-3.469
		c10.132-2.121,18.511-9.067,22.621-18.317L205.629,305.687z M145.941,296.137c4.34,8.82,12.633,15.355,22.551,17.285l-10.367,3.379
		l-4.258-4.918c-0.406-0.465-0.879-0.868-1.406-1.192l-8.184-5L145.941,296.137z M222.688,23.09c7.082-7.36,18.351-11.09,33.5-11.09
		c13.148,0,23.949,5.332,32.101,15.844c18.055,23.281,21.313,68.722,8.5,118.589c-7.992,31.098-6.723,52.621,3.777,63.965
		c0.817,0.883,1.661,1.672,2.516,2.375c-6.711,1.391-14.652,1.68-21.91-1.551c-10.414-4.64-17.676-15.824-21.598-33.23V114.89
		c0-1.711-0.254-36.382-24.347-60.55c-5.934-5.953-12.778-10.703-20.469-14.286C215.309,35.918,217.078,28.926,222.688,23.09
		L222.688,23.09z M111.484,79.203c12.301-23.356,33.598-35.195,63.301-35.195c11.879,0,22.387,1.824,31.5,5.433
		c0.07,0.028,0.141,0.059,0.215,0.082c13.926,5.574,24.57,15.356,31.785,29.289c5.113,9.875,7.414,19.887,8.445,26.848
		c-21.488-10.691-27.46-30.02-27.726-30.914c-0.602-2.082-2.274-3.68-4.383-4.18c-2.109-0.496-4.32,0.18-5.789,1.77
		c-34.082,36.89-88.859,37.722-106.691,36.922C103.016,102.562,105.34,90.867,111.484,79.203L111.484,79.203z M87.598,171.707
		c-4.305-4.766-5.078-13.934-4.364-20.926c0.161-1.594,0.77-2.269,1.344-2.719c1.215-0.953,3.141-1.437,5.047-1.64v26.98
		C88.891,172.945,88.211,172.39,87.598,171.707L87.598,171.707z M114.27,218.113c-9.387-14.41-12.211-28.676-12.645-31.133v-65.707
		c7.691,0.371,21.313,0.446,37.371-2.035c29.129-4.5,53.891-15.625,72.207-32.359c4.973,9.488,15.645,24.261,36.371,32.254v67.859
		c-0.426,2.445-3.148,16.375-12.406,30.75c-13.445,20.875-33.633,32.352-60.012,34.105h-1.117
		C147.828,250.101,127.719,238.754,114.27,218.113L114.27,218.113z M173.457,263.836c0.129,0.008,0.258,0.011,0.387,0.011h1.511
		c0.129,0,0.258-0.003,0.387-0.011c6.797-0.442,13.039-1.465,18.778-2.934v21.035c0,0.051-0.008,0.102-0.008,0.157
		c0,10.98-8.934,19.918-19.918,19.918c-10.981,0-19.914-8.938-19.914-19.918v-21.192
		C160.418,262.371,166.656,263.394,173.457,263.836L173.457,263.836z M58.781,359.441c0-70.543,51.621-71.363,53.84-71.363h22.547
		l-3.414,19.57c-0.426,2.426,0.676,4.864,2.781,6.153l10.871,6.644l6.258,7.223c1.16,1.34,2.824,2.074,4.535,2.074
		c0.621,0,1.246-0.098,1.86-0.297l16.894-5.508l16.895,5.508c0.613,0.199,1.238,0.297,1.859,0.297c1.711,0,3.379-0.734,4.535-2.074
		l6.258-7.223l10.871-6.644c2.102-1.289,3.207-3.727,2.785-6.153l-3.418-19.57h21.891c0.379,0,12.844,0.098,25.629,7.93H233
		c-3.312,0-6,2.683-6,6v69.726H58.781V359.441z M58.781,359.441"/>
	<path d="M139.168,148.804c0,3.958-3.203,7.161-7.16,7.161c-3.953,0-7.16-3.203-7.16-7.161c0-3.953,3.207-7.16,7.16-7.16
		C135.965,141.644,139.168,144.851,139.168,148.804L139.168,148.804z M139.168,148.804"/>
	<path d="M224.348,148.804c0,3.958-3.203,7.161-7.16,7.161c-3.954,0-7.161-3.203-7.161-7.161c0-3.953,3.207-7.16,7.161-7.16
		C221.145,141.644,224.348,144.851,224.348,148.804L224.348,148.804z M224.348,148.804"/>
	<path d="M173.559,187.512h2.082c6.418,0,11.644-5.223,11.644-11.645c0-3.316-2.687-6-6-6c-3.195,0-5.808,2.496-5.992,5.645h-1.387
		c-0.183-3.149-2.797-5.645-5.992-5.645c-3.312,0-6,2.684-6,6C161.914,182.289,167.137,187.512,173.559,187.512L173.559,187.512z
		 M173.559,187.512"/>
	<path d="M261,340.804h31.199c3.313,0,6-2.683,6-6c0-3.312-2.687-6-6-6H261c-3.312,0-6,2.688-6,6
		C255,338.121,257.684,340.804,261,340.804L261,340.804z M261,340.804"/>
	<path d="M261,360.808h31.199c3.313,0,6-2.687,6-6c0-3.316-2.687-6-6-6H261c-3.312,0-6,2.684-6,6
		C255,358.121,257.684,360.808,261,360.808L261,360.808z M261,360.808"/>
	<path d="M211.793,211.785c2.082-2.578,1.676-6.356-0.902-8.438c-2.579-2.078-6.356-1.675-8.438,0.907
		c-0.062,0.078-7.269,7.949-26.375,7.949c-19.836,0-29.512-8.227-29.996-8.649c-2.449-2.199-6.219-2.015-8.441,0.422
		c-2.235,2.45-2.055,6.246,0.39,8.477c0.528,0.48,13.176,11.75,38.047,11.75C201.059,224.203,210.77,213.058,211.793,211.785
		L211.793,211.785z M211.793,211.785"/>
</g>
</svg>
