<?xml version="1.0" encoding="iso-8859-1"?>
<!-- Generator: Adobe Illustrator 17.1.0, SVG Export Plug-In . SVG Version: 6.00 Build 0)  -->
<!DOCTYPE svg PUBLIC "-//W3C//DTD SVG 1.1//EN" "http://www.w3.org/Graphics/SVG/1.1/DTD/svg11.dtd">
<svg version="1.1" id="OBJECTS" xmlns="http://www.w3.org/2000/svg" xmlns:xlink="http://www.w3.org/1999/xlink" x="0px" y="0px"
	 viewBox="0 0 109.362 88.373" style="enable-background:new 0 0 109.362 88.373;" xml:space="preserve">
<image style="overflow:visible;" width="448" height="392" xlink:href="50D399F7.jpg"  transform="matrix(1 0 0 1 -8240.2832 -8152.4658)">
</image>
<image style="overflow:visible;" width="448" height="392" xlink:href="50D399F5.jpg"  transform="matrix(1 0 0 1 -8240.2832 -8152.4658)">
</image>
<g>
	<g>
		<linearGradient id="SVGID_1_" gradientUnits="userSpaceOnUse" x1="8.3463" y1="0.8677" x2="8.3463" y2="96.8729">
			<stop  offset="0" style="stop-color:#4ECECF"/>
			<stop  offset="1" style="stop-color:#4E98CF"/>
		</linearGradient>
		<path style="fill:url(#SVGID_1_);" d="M16.333,53.948l0.36,6.859h-0.784c-0.065-0.718-0.261-2.874-1.274-4.279
			c-1.111-1.568-2.646-1.927-4.344-1.927H6.174v9.44h2.091c0.653,0,2.189,0.065,3.005-1.764c0.294-0.653,0.457-1.535,0.523-2.156
			h0.653v8.559h-0.653c0-0.196-0.065-1.339-0.49-2.287c-0.653-1.535-1.829-1.699-2.842-1.699H6.174v9.996h2.515v0.653H0v-0.653
			h2.515v-20.09H0v-0.653H16.333z"/>
		<linearGradient id="SVGID_2_" gradientUnits="userSpaceOnUse" x1="27.7913" y1="0.8677" x2="27.7913" y2="96.8729">
			<stop  offset="0" style="stop-color:#4ECECF"/>
			<stop  offset="1" style="stop-color:#4E98CF"/>
		</linearGradient>
		<path style="fill:url(#SVGID_2_);" d="M19.886,57.541c2.091-2.679,5.26-3.953,7.905-3.953s5.815,1.274,7.905,3.953
			c1.437,1.862,2.385,4.345,2.385,7.089c0,2.776-0.948,5.227-2.385,7.089c-2.45,3.169-5.88,3.985-7.905,3.985
			s-5.455-0.817-7.905-3.985c-1.437-1.862-2.384-4.312-2.384-7.089C17.501,61.885,18.449,59.403,19.886,57.541z M22.303,70.444
			c1.078,3.234,3.528,4.639,5.488,4.639s4.41-1.405,5.488-4.639c0.555-1.666,0.686-3.594,0.686-5.815
			c0-2.222-0.131-4.181-0.686-5.815c-1.078-3.201-3.528-4.606-5.488-4.606s-4.41,1.405-5.488,4.606
			c-0.556,1.633-0.686,3.593-0.686,5.815C21.617,66.85,21.748,68.778,22.303,70.444z"/>
		<linearGradient id="SVGID_3_" gradientUnits="userSpaceOnUse" x1="48.7251" y1="0.8677" x2="48.7251" y2="96.8729">
			<stop  offset="0" style="stop-color:#4ECECF"/>
			<stop  offset="1" style="stop-color:#4E98CF"/>
		</linearGradient>
		<path style="fill:url(#SVGID_3_);" d="M47.255,53.948c3.267,0,5.194,0.261,6.533,0.98c0.784,0.425,2.417,1.536,2.417,3.789
			c0,1.568-0.588,2.711-1.601,3.528c-1.47,1.176-3.757,1.601-5.096,1.699v0.131c0.817,0.131,1.96,0.425,3.136,0.98
			c2.352,1.143,2.548,2.646,2.744,4.345c0.359,2.94,0.359,3.626,0.621,4.377c0.131,0.326,0.294,0.751,0.816,0.751
			c0.588,0,1.437-0.784,1.731-1.11l0.49,0.522c-1.241,1.699-2.483,1.764-3.463,1.764c-0.882,0-2.124-0.131-2.973-1.241
			c-0.686-0.948-0.784-2.45-0.915-3.692c-0.261-2.384-0.425-4.704-1.568-5.684c-0.784-0.653-1.927-0.719-2.907-0.719h-2.646v10.323
			h2.515v0.653h-8.689v-0.653h2.515v-20.09h-2.515v-0.653H47.255z M46.863,63.714c1.405,0,3.038-0.163,4.214-1.437
			c0.817-0.882,1.013-1.927,1.013-3.593c0-1.47-0.359-2.776-1.568-3.462c-0.849-0.49-2.744-0.621-3.463-0.621h-2.483v9.114H46.863z"
			/>
	</g>
	<linearGradient id="SVGID_4_" gradientUnits="userSpaceOnUse" x1="10.1485" y1="0.8677" x2="10.1485" y2="96.8729">
		<stop  offset="0" style="stop-color:#4ECECF"/>
		<stop  offset="1" style="stop-color:#4E98CF"/>
	</linearGradient>
	<path style="fill:url(#SVGID_4_);" d="M18.114,28.929c-1.631-1.265-4.099-1.854-7.765-1.854H0v1.956h2.581v17.491H0v1.956h11.173
		v-1.956H8.592v-6.647h2.186c1.415,0,4.925-0.142,6.948-1.452c2.125-1.349,2.571-3.344,2.571-4.78
		C20.297,32.341,20.07,30.435,18.114,28.929z M8.592,29.031h1.203c1.256,0,2.555,0,3.256,0.725c0.544,0.567,0.59,1.416,0.59,2.168
		v2.181c0,0.959,0,2.047-0.466,2.733c-0.707,0.999-2.147,1.082-3.686,1.082H8.592V29.031z"/>
	<linearGradient id="SVGID_5_" gradientUnits="userSpaceOnUse" x1="30.0909" y1="0.8677" x2="30.0909" y2="96.8729">
		<stop  offset="0" style="stop-color:#4ECECF"/>
		<stop  offset="1" style="stop-color:#4E98CF"/>
	</linearGradient>
	<path style="fill:url(#SVGID_5_);" d="M33.465,35.107l-4.356-1.717c-0.207-0.084-0.402-0.156-0.59-0.224
		c-0.539-0.197-0.965-0.352-1.415-0.743c-0.51-0.441-0.7-0.859-0.7-1.543c0-0.711,0.181-1.13,0.638-1.487
		c0.637-0.484,1.539-0.546,2.255-0.546c1.098,0,2.393,0.193,3.669,1.629c0.694,0.781,1.347,1.961,1.745,3.156l0.146,0.438h1.839
		v-6.994h-1.993l-0.183,0.166c-0.238,0.217-0.616,0.386-0.86,0.386c-0.237,0-0.553-0.135-0.952-0.307l-0.254-0.108
		c-0.93-0.372-1.979-0.568-3.033-0.568c-1.782,0-3.363,0.504-4.567,1.453c-2.09,1.6-2.401,3.989-2.401,5.27
		c0,1.352,0.406,2.568,1.202,3.608c1.017,1.368,2.345,2.01,3.504,2.456l3.657,1.445c1.939,0.762,3.311,1.438,3.311,3.214
		c0,0.77-0.412,1.533-1.067,1.987c-0.618,0.412-1.494,0.63-2.533,0.63c-1.755,0-3.011-0.756-3.476-1.085
		c-0.695-0.481-1.373-1.221-1.907-2.082c-0.733-1.195-1.091-2.466-1.226-2.945l-0.158-0.555h-1.871l0.145,8.438h2.1l0.186-0.314
		c0.233-0.395,0.563-0.454,0.739-0.454c0.244,0,0.56,0.106,1.189,0.318l0.657,0.221c1.133,0.383,1.952,0.66,3.653,0.66
		c2.292,0,3.899-0.563,5.37-1.881c2.059-1.819,2.367-4.161,2.367-5.395c0-1.364-0.356-2.598-1.056-3.667
		C36.181,36.343,34.738,35.61,33.465,35.107z"/>
	<linearGradient id="SVGID_6_" gradientUnits="userSpaceOnUse" x1="49.5143" y1="0.8677" x2="49.5143" y2="96.8729">
		<stop  offset="0" style="stop-color:#4ECECF"/>
		<stop  offset="1" style="stop-color:#4E98CF"/>
	</linearGradient>
	<path style="fill:url(#SVGID_6_);" d="M52.546,29.075l0.682-0.046c0.379-0.023,0.841,0.065,1.047,0.202
		c0.3,0.2,0.452,0.537,0.452,1.003c0,0.681-0.416,1.382-0.783,2c-0.074,0.125-0.145,0.245-0.205,0.35l-1.796,3.071l-4.066-6.625
		h1.892v-1.956H38.844v1.956h1.972l5.955,9.71v7.782h-2.581v1.956h11.172v-1.956h-2.581v-8.035L55,34.67
		c0.661-1.149,2.347-3.79,3.247-4.69c0.513-0.513,0.948-0.798,1.5-0.982l0.438-0.146v-1.777h-7.639V29.075z"/>
	<linearGradient id="SVGID_7_" gradientUnits="userSpaceOnUse" x1="75.5239" y1="0.8677" x2="75.5239" y2="96.8729">
		<stop  offset="0" style="stop-color:#4ECECF"/>
		<stop  offset="1" style="stop-color:#4E98CF"/>
	</linearGradient>
	<path style="fill:url(#SVGID_7_);" d="M79.931,53.926l-4.323,11.769l-4.434-11.769h-8.548v1.956h0.64
		c0.372,0,1.197,0.115,1.497,0.379c0.226,0.213,0.351,0.648,0.351,1.224v12.473c0,1.242-0.218,2.291-0.566,2.734
		c-0.235,0.294-0.799,0.632-1.484,0.684l-0.592,0.044v1.909h7.117v-1.956h-0.64c-0.827,0-1.198-0.43-1.305-0.579
		c-0.329-0.431-0.482-1.292-0.482-2.714V59.794l5.703,15.534h1.509l5.64-15.503v13.548h-2.581v1.956h11.142v-1.956h-2.55V55.882
		h2.55v-1.956H79.931z"/>
	<linearGradient id="SVGID_8_" gradientUnits="userSpaceOnUse" x1="100.007" y1="0.8677" x2="100.007" y2="96.8729">
		<stop  offset="0" style="stop-color:#4ECECF"/>
		<stop  offset="1" style="stop-color:#4E98CF"/>
	</linearGradient>
	<path style="fill:url(#SVGID_8_);" d="M109.282,67.382h-1.236l-0.074,0.555c-0.148,1.111-0.656,2.178-1.514,3.175
		c-1.265,1.501-2.909,2.261-4.887,2.261h-2.247v-8.767h1.387c1.187,0,1.937,0.682,2.216,1.261c0.165,0.35,0.304,1.109,0.339,1.847
		l0.029,0.61h2.111v-9.329h-2.14v0.64c0,0.576-0.118,1.129-0.339,1.573c-0.202,0.434-0.824,1.443-2.216,1.443h-1.387v-6.769h2.278
		c2.781,0,4.139,1.332,4.674,2.084l0.037,0.061c0.696,1.101,0.987,2.286,1.108,3.086l0.082,0.544h1.779v-7.731H90.732v1.956h2.581
		v17.491h-2.581v1.956h18.551V67.382z"/>
	<g>
		<g>
			<linearGradient id="SVGID_9_" gradientUnits="userSpaceOnUse" x1="85.9988" y1="0.8677" x2="85.9988" y2="96.8729">
				<stop  offset="0" style="stop-color:#4ECECF"/>
				<stop  offset="1" style="stop-color:#4E98CF"/>
			</linearGradient>
			<path style="fill:url(#SVGID_9_);" d="M98.757,25.417c0,4.258-5.967,6.905-13.437,7.473c-8.164,0.621-11.286-2.191-12.026-8.23
				c-0.519-4.237,2.713-9.306,10.052-8.05C92.83,18.232,98.757,21.158,98.757,25.417z"/>
			<linearGradient id="SVGID_10_" gradientUnits="userSpaceOnUse" x1="87.6855" y1="0.8677" x2="87.6855" y2="96.8729">
				<stop  offset="0" style="stop-color:#4ECECF"/>
				<stop  offset="1" style="stop-color:#4E98CF"/>
			</linearGradient>
			<path style="fill:url(#SVGID_10_);" d="M79.749,34.971c7.706-1.47,27.571-4.513,29.478,4.248
				c2.642,12.133-39.104,9.545-42.626,5.804C64.486,42.776,68.043,37.205,79.749,34.971z"/>
			<linearGradient id="SVGID_11_" gradientUnits="userSpaceOnUse" x1="88.5806" y1="0.8677" x2="88.5806" y2="96.8729">
				<stop  offset="0" style="stop-color:#4ECECF"/>
				<stop  offset="1" style="stop-color:#4E98CF"/>
			</linearGradient>
			<path style="fill:url(#SVGID_11_);" d="M94.573,10.575c-5.818-0.563-20.817-1.728-22.257,1.626
				c-1.994,4.646,29.525,3.654,32.184,2.222C106.097,13.564,103.412,11.43,94.573,10.575z"/>
			<linearGradient id="SVGID_12_" gradientUnits="userSpaceOnUse" x1="83.4377" y1="0.8677" x2="83.4377" y2="96.8729">
				<stop  offset="0" style="stop-color:#4ECECF"/>
				<stop  offset="1" style="stop-color:#4E98CF"/>
			</linearGradient>
			<path style="fill:url(#SVGID_12_);" d="M77.043,6.534c-0.668-2.079,1.83-4.306,5.388-5.754c3.888-1.583,5.853-0.7,7.16,2.133
				c0.917,1.987,0.134,4.968-3.645,5.505C81.062,9.112,77.711,8.613,77.043,6.534z"/>
		</g>
	</g>
	<g>
		<g>
			<g>
				<linearGradient id="SVGID_13_" gradientUnits="userSpaceOnUse" x1="2.7933" y1="0.8677" x2="2.7933" y2="96.8729">
					<stop  offset="0" style="stop-color:#4ECECF"/>
					<stop  offset="1" style="stop-color:#4E98CF"/>
				</linearGradient>
				<path style="fill:url(#SVGID_13_);" d="M5.587,81.25v6.617c0,0.258-0.082,0.35-0.35,0.35H4.649c-0.268,0-0.35-0.093-0.35-0.35
					v-5.762H1.299v5.762c0,0.258-0.093,0.35-0.35,0.35H0.361C0.093,88.218,0,88.125,0,87.868V81.25c0-0.258,0.093-0.35,0.361-0.35
					h4.875C5.504,80.9,5.587,80.993,5.587,81.25z"/>
				<linearGradient id="SVGID_14_" gradientUnits="userSpaceOnUse" x1="10.5359" y1="0.8677" x2="10.5359" y2="96.8729">
					<stop  offset="0" style="stop-color:#4ECECF"/>
					<stop  offset="1" style="stop-color:#4E98CF"/>
				</linearGradient>
				<path style="fill:url(#SVGID_14_);" d="M10.586,80.745c1.515,0,2.412,0.608,2.804,1.721c0.093,0.247,0.031,0.361-0.216,0.453
					l-0.567,0.196c-0.247,0.072-0.35,0.041-0.443-0.216c-0.227-0.629-0.721-0.948-1.577-0.948c-1.062,0-1.649,0.515-1.649,1.464
					v2.278c0,0.948,0.588,1.474,1.649,1.474c0.866,0,1.35-0.33,1.577-0.959c0.103-0.258,0.206-0.309,0.453-0.216l0.557,0.196
					c0.247,0.093,0.309,0.206,0.227,0.453c-0.392,1.113-1.288,1.732-2.814,1.732c-1.897,0-2.948-1.031-2.948-2.69v-2.257
					C7.638,81.776,8.689,80.745,10.586,80.745z"/>
				<linearGradient id="SVGID_15_" gradientUnits="userSpaceOnUse" x1="18.1565" y1="0.8677" x2="18.1565" y2="96.8729">
					<stop  offset="0" style="stop-color:#4ECECF"/>
					<stop  offset="1" style="stop-color:#4E98CF"/>
				</linearGradient>
				<path style="fill:url(#SVGID_15_);" d="M20.697,80.9h-0.608c-0.186,0-0.268,0.062-0.34,0.165L17.43,84.59
					c-0.412,0.634-0.641,1.031-0.866,1.541v-1.773c0-0.002,0-0.003,0-0.005c0-0.037,0-0.075,0-0.114V81.25
					c0-0.258-0.093-0.35-0.35-0.35h-0.588c-0.268,0-0.361,0.093-0.361,0.35v3.108v3.11v0.4c0,0.258,0.093,0.35,0.361,0.35h0.598
					c0.175,0,0.268-0.041,0.35-0.175l2.36-3.597c0.401-0.63,0.61-0.983,0.825-1.464v1.866v0.712v2.308c0,0.258,0.082,0.35,0.35,0.35
					h0.588c0.268,0,0.35-0.093,0.35-0.35v-2.308v-3.454V81.25C21.048,80.993,20.965,80.9,20.697,80.9z"/>
				<linearGradient id="SVGID_16_" gradientUnits="userSpaceOnUse" x1="25.8897" y1="0.8677" x2="25.8897" y2="96.8729">
					<stop  offset="0" style="stop-color:#4ECECF"/>
					<stop  offset="1" style="stop-color:#4E98CF"/>
				</linearGradient>
				<path style="fill:url(#SVGID_16_);" d="M28.82,88.218h-0.722c-0.412,0-0.515-0.021-0.691-0.309l-1.577-2.422l-1.515,2.422
					c-0.196,0.278-0.268,0.309-0.68,0.309h-0.67c-0.268,0-0.309-0.165-0.175-0.361l2.268-3.371l-2.185-3.257
					c-0.134-0.165-0.072-0.33,0.175-0.33h0.691c0.412,0,0.495,0.041,0.68,0.289l1.474,2.278l1.474-2.278
					c0.186-0.247,0.268-0.289,0.649-0.289h0.711c0.237,0,0.299,0.165,0.165,0.33l-2.206,3.247l2.299,3.381
					C29.129,88.043,29.077,88.218,28.82,88.218z"/>
				<linearGradient id="SVGID_17_" gradientUnits="userSpaceOnUse" x1="33.2054" y1="0.8677" x2="33.2054" y2="96.8729">
					<stop  offset="0" style="stop-color:#4ECECF"/>
					<stop  offset="1" style="stop-color:#4E98CF"/>
				</linearGradient>
				<path style="fill:url(#SVGID_17_);" d="M33.21,80.745c1.886,0,2.938,1.031,2.938,2.69v2.247c0,1.659-1.051,2.69-2.938,2.69
					c-1.897,0-2.948-1.031-2.948-2.69v-2.247C30.263,81.776,31.314,80.745,33.21,80.745z M33.21,81.951
					c-1.062,0-1.649,0.515-1.649,1.474v2.268c0,0.959,0.588,1.474,1.649,1.474c1.051,0,1.649-0.515,1.649-1.474v-2.268
					C34.86,82.467,34.262,81.951,33.21,81.951z"/>
				<linearGradient id="SVGID_18_" gradientUnits="userSpaceOnUse" x1="40.5398" y1="0.8677" x2="40.5398" y2="96.8729">
					<stop  offset="0" style="stop-color:#4ECECF"/>
					<stop  offset="1" style="stop-color:#4E98CF"/>
				</linearGradient>
				<path style="fill:url(#SVGID_18_);" d="M43.652,81.25v6.617c0,0.258-0.093,0.35-0.35,0.35h-0.598c-0.258,0-0.35-0.093-0.35-0.35
					v-5.762h-2.185v1.34c0,3.659-0.948,4.381-1.948,4.865c-0.237,0.113-0.361,0.072-0.464-0.165l-0.268-0.515
					c-0.113-0.237-0.072-0.361,0.165-0.474c0.546-0.268,1.247-0.691,1.247-3.711V81.25c0-0.258,0.093-0.35,0.361-0.35h4.041
					C43.559,80.9,43.652,80.993,43.652,81.25z"/>
				<linearGradient id="SVGID_19_" gradientUnits="userSpaceOnUse" x1="48.6355" y1="0.8677" x2="48.6355" y2="96.8729">
					<stop  offset="0" style="stop-color:#4ECECF"/>
					<stop  offset="1" style="stop-color:#4E98CF"/>
				</linearGradient>
				<path style="fill:url(#SVGID_19_);" d="M48.641,80.745c1.886,0,2.938,1.031,2.938,2.69v2.247c0,1.659-1.051,2.69-2.938,2.69
					c-1.897,0-2.948-1.031-2.948-2.69v-2.247C45.693,81.776,46.744,80.745,48.641,80.745z M48.641,81.951
					c-1.062,0-1.649,0.515-1.649,1.474v2.268c0,0.959,0.588,1.474,1.649,1.474c1.051,0,1.649-0.515,1.649-1.474v-2.268
					C50.29,82.467,49.692,81.951,48.641,81.951z"/>
				<linearGradient id="SVGID_20_" gradientUnits="userSpaceOnUse" x1="55.8661" y1="0.8677" x2="55.8661" y2="96.8729">
					<stop  offset="0" style="stop-color:#4ECECF"/>
					<stop  offset="1" style="stop-color:#4E98CF"/>
				</linearGradient>
				<path style="fill:url(#SVGID_20_);" d="M58.113,81.25v0.505c0,0.258-0.082,0.35-0.35,0.35h-2.845v5.762
					c0,0.258-0.093,0.35-0.35,0.35H53.98c-0.268,0-0.361-0.093-0.361-0.35V81.25c0-0.258,0.093-0.35,0.361-0.35h3.783
					C58.031,80.9,58.113,80.993,58.113,81.25z"/>
				<linearGradient id="SVGID_21_" gradientUnits="userSpaceOnUse" x1="62.6844" y1="0.8677" x2="62.6844" y2="96.8729">
					<stop  offset="0" style="stop-color:#4ECECF"/>
					<stop  offset="1" style="stop-color:#4E98CF"/>
				</linearGradient>
				<path style="fill:url(#SVGID_21_);" d="M65.225,80.9h-0.608c-0.186,0-0.268,0.062-0.34,0.165l-2.319,3.525
					c-0.412,0.634-0.641,1.031-0.866,1.541V84.24v-0.118V81.25c0-0.258-0.093-0.35-0.35-0.35h-0.588
					c-0.268,0-0.361,0.093-0.361,0.35v2.871v2.903v0.843c0,0.258,0.093,0.35,0.361,0.35h0.598c0.175,0,0.268-0.041,0.35-0.175
					l2.36-3.597c0.401-0.63,0.61-0.983,0.825-1.464v1.866v0.361v2.659c0,0.258,0.082,0.35,0.35,0.35h0.588
					c0.268,0,0.35-0.093,0.35-0.35v-2.659v-3.041V81.25C65.576,80.993,65.493,80.9,65.225,80.9z"/>
			</g>
			<g>
				<linearGradient id="SVGID_22_" gradientUnits="userSpaceOnUse" x1="81.5057" y1="0.8677" x2="81.5057" y2="96.8729">
					<stop  offset="0" style="stop-color:#4ECECF"/>
					<stop  offset="1" style="stop-color:#4E98CF"/>
				</linearGradient>
				<path style="fill:url(#SVGID_22_);" d="M84.046,88.218h-0.608c-0.186,0-0.268-0.062-0.34-0.165l-2.319-3.525
					c-0.412-0.634-0.641-1.031-0.866-1.541v1.891v0.118v2.871c0,0.258-0.093,0.35-0.35,0.35h-0.588c-0.268,0-0.361-0.093-0.361-0.35
					v-2.871v-2.903V81.25c0-0.258,0.093-0.35,0.361-0.35h0.598c0.175,0,0.268,0.041,0.35,0.175l2.36,3.597
					c0.401,0.63,0.61,0.983,0.825,1.464V84.27v-0.361V81.25c0-0.258,0.082-0.35,0.35-0.35h0.588c0.268,0,0.35,0.093,0.35,0.35v2.659
					v3.041v0.918C84.397,88.125,84.314,88.218,84.046,88.218z"/>
				<linearGradient id="SVGID_23_" gradientUnits="userSpaceOnUse" x1="99.3169" y1="0.8677" x2="99.3169" y2="96.8729">
					<stop  offset="0" style="stop-color:#4ECECF"/>
					<stop  offset="1" style="stop-color:#4E98CF"/>
				</linearGradient>
				<path style="fill:url(#SVGID_23_);" d="M101.858,88.218h-0.608c-0.186,0-0.268-0.062-0.34-0.165l-2.319-3.525
					c-0.412-0.634-0.641-1.031-0.866-1.541v1.891v0.118v2.871c0,0.258-0.093,0.35-0.35,0.35h-0.588c-0.268,0-0.361-0.093-0.361-0.35
					v-2.871v-2.903V81.25c0-0.258,0.093-0.35,0.361-0.35h0.598c0.175,0,0.268,0.041,0.35,0.175l2.36,3.597
					c0.401,0.63,0.61,0.983,0.825,1.464V84.27v-0.361V81.25c0-0.258,0.082-0.35,0.35-0.35h0.588c0.268,0,0.35,0.093,0.35,0.35v2.659
					v3.041v0.918C102.208,88.125,102.126,88.218,101.858,88.218z"/>
				<linearGradient id="SVGID_24_" gradientUnits="userSpaceOnUse" x1="73.6515" y1="0.8677" x2="73.6515" y2="96.8729">
					<stop  offset="0" style="stop-color:#4ECECF"/>
					<stop  offset="1" style="stop-color:#4E98CF"/>
				</linearGradient>
				<path style="fill:url(#SVGID_24_);" d="M73.657,80.745c1.886,0,2.938,1.031,2.938,2.69v2.247c0,1.659-1.051,2.69-2.938,2.69
					c-1.897,0-2.948-1.031-2.948-2.69v-2.247C70.709,81.776,71.76,80.745,73.657,80.745z M73.657,81.951
					c-1.062,0-1.649,0.515-1.649,1.474v2.268c0,0.959,0.588,1.474,1.649,1.474c1.051,0,1.649-0.515,1.649-1.474v-2.268
					C75.306,82.467,74.708,81.951,73.657,81.951z"/>
				<linearGradient id="SVGID_25_" gradientUnits="userSpaceOnUse" x1="88.9373" y1="0.8677" x2="88.9373" y2="96.8729">
					<stop  offset="0" style="stop-color:#4ECECF"/>
					<stop  offset="1" style="stop-color:#4E98CF"/>
				</linearGradient>
				<path style="fill:url(#SVGID_25_);" d="M87.932,81.25v5.762h2.958c0.258,0,0.35,0.093,0.35,0.35v0.505
					c0,0.258-0.093,0.35-0.35,0.35h-3.896c-0.268,0-0.361-0.093-0.361-0.35V81.25c0-0.258,0.093-0.35,0.361-0.35h0.588
					C87.84,80.9,87.932,80.993,87.932,81.25z"/>
				<linearGradient id="SVGID_26_" gradientUnits="userSpaceOnUse" x1="93.55" y1="0.8677" x2="93.55" y2="96.8729">
					<stop  offset="0" style="stop-color:#4ECECF"/>
					<stop  offset="1" style="stop-color:#4E98CF"/>
				</linearGradient>
				<path style="fill:url(#SVGID_26_);" d="M93.261,80.9h0.588c0.258,0,0.35,0.093,0.35,0.35v6.617c0,0.258-0.093,0.35-0.35,0.35
					h-0.588c-0.268,0-0.361-0.093-0.361-0.35V81.25C92.901,80.993,92.993,80.9,93.261,80.9z"/>
				<linearGradient id="SVGID_27_" gradientUnits="userSpaceOnUse" x1="106.9032" y1="0.8677" x2="106.9032" y2="96.8729">
					<stop  offset="0" style="stop-color:#4ECECF"/>
					<stop  offset="1" style="stop-color:#4E98CF"/>
				</linearGradient>
				<path style="fill:url(#SVGID_27_);" d="M109.258,81.25v0.505c0,0.258-0.093,0.35-0.361,0.35h-3.154v1.804h2.67
					c0.258,0,0.35,0.093,0.35,0.35v0.505c0,0.258-0.093,0.35-0.35,0.35h-2.67v1.897h3.267c0.268,0,0.35,0.093,0.35,0.35v0.505
					c0,0.258-0.082,0.35-0.35,0.35h-4.205c-0.268,0-0.361-0.093-0.361-0.35V81.25c0-0.258,0.093-0.35,0.361-0.35h4.092
					C109.166,80.9,109.258,80.993,109.258,81.25z"/>
			</g>
		</g>
	</g>
</g>
</svg>
