<?xml version="1.0" encoding="utf-8"?>
<!-- Generator: Adobe Illustrator 17.1.0, SVG Export Plug-In . SVG Version: 6.00 Build 0)  -->
<!DOCTYPE svg PUBLIC "-//W3C//DTD SVG 1.1//EN" "http://www.w3.org/Graphics/SVG/1.1/DTD/svg11.dtd">
<svg version="1.1" id="OBJECTS" xmlns="http://www.w3.org/2000/svg" xmlns:xlink="http://www.w3.org/1999/xlink" x="0px" y="0px"
	 viewBox="0 0 183.8 180.1" enable-background="new 0 0 183.8 180.1" xml:space="preserve">
<g>
	<path fill="#FFFFFF" d="M74.7,180.1c-4.7,0-8.8-2.9-11-7.8c-2.2-5-7.8-8.5-13.6-8.5c-1.2,0-2.4,0.2-3.5,0.5
		c-4.8,1.3-9.4,0.3-12.4-2.8c-2.3-2.4-3.5-5.7-3.4-9.5c0.2-6.8-5.3-13.5-11.9-14.6c-4.4-0.8-7.7-3.1-9.4-6.5
		c-1.7-3.4-1.5-7.5,0.5-11.4c3.1-6,1.1-14.4-4.4-18.4C2,98.4,0,94.8,0,91c0-3.8,1.9-7.4,5.4-10.1c5.4-4.1,7.2-12.5,4-18.5
		C7.3,58.5,7.1,54.5,8.7,51c1.6-3.5,4.9-5.9,9.3-6.7c6.6-1.3,11.9-8.1,11.6-14.9c-0.2-3.8,1-7.3,3.3-9.7c2.9-3.1,7.5-4.2,12.3-3
		c1,0.3,2.1,0.4,3.3,0.4c5.9,0,11.5-3.6,13.7-8.8c2.1-5,6.2-8,11-8c3,0,5.9,1.2,8.5,3.3c2.5,2.1,5.8,3.2,9.3,3.2
		c3.7,0,7.1-1.2,9.6-3.4c2.6-2.3,5.6-3.5,8.6-3.5c4.7,0,8.8,2.9,11,7.8c2.2,5,7.8,8.5,13.6,8.5c1.2,0,2.4-0.2,3.5-0.5
		c4.8-1.3,9.4-0.3,12.4,2.8c2.3,2.4,3.5,5.7,3.4,9.5c-0.2,6.8,5.3,13.5,11.9,14.6c4.4,0.8,7.7,3.1,9.4,6.5s1.5,7.5-0.5,11.4
		c-3.1,6-1.1,14.4,4.4,18.4c3.6,2.6,5.6,6.1,5.6,10c0,3.8-1.9,7.4-5.4,10.1c-5.4,4.1-7.2,12.5-4,18.5c2.1,3.9,2.4,7.9,0.7,11.4
		s-4.9,5.9-9.3,6.7c-6.6,1.3-11.9,8.1-11.6,14.9c0.2,3.8-1,7.3-3.3,9.7c-2.9,3.1-7.5,4.2-12.3,3c-1-0.3-2.1-0.4-3.3-0.4
		c-5.9,0-11.5,3.6-13.7,8.8c-2.1,5-6.2,8-11,8c-3,0-5.9-1.2-8.5-3.3c-2.5-2.1-5.8-3.2-9.3-3.2c-3.7,0-7.1,1.2-9.6,3.4
		C80.7,178.9,77.7,180.1,74.7,180.1z M50.2,159.8c7.3,0,14.3,4.5,17.2,10.9c1.5,3.4,4.2,5.4,7.3,5.4c2,0,4.1-0.9,6-2.5
		c3.2-2.9,7.6-4.4,12.2-4.4c4.5,0,8.7,1.5,11.9,4.2c1.9,1.6,3.9,2.4,5.9,2.4c3.2,0,5.8-2,7.3-5.6c2.8-6.6,9.9-11.2,17.4-11.2
		c1.5,0,2.9,0.2,4.3,0.5c3.4,0.9,6.4,0.2,8.4-1.9c1.5-1.6,2.3-4,2.2-6.7c-0.4-8.8,6.2-17.3,14.8-19c3.1-0.6,5.3-2.2,6.4-4.5
		c1.1-2.3,0.9-5.1-0.6-7.8c-4.2-7.7-1.9-18.3,5.1-23.6c2.5-1.9,3.9-4.3,3.8-6.8c0-2.5-1.4-4.9-4-6.8c-7.1-5.1-9.6-15.6-5.6-23.4
		c1.4-2.8,1.6-5.6,0.5-7.8c-1.1-2.3-3.4-3.8-6.5-4.4c-8.6-1.5-15.5-9.9-15.2-18.7c0.1-2.7-0.7-5-2.3-6.6c-2-2-5.1-2.7-8.5-1.7
		c-1.5,0.4-3,0.6-4.6,0.6c-7.3,0-14.3-4.5-17.2-10.9C114.8,6,112.2,4,109.1,4c-2,0-4.1,0.9-6,2.5c-3.2,2.9-7.6,4.4-12.2,4.4
		c-4.5,0-8.7-1.5-11.9-4.2c-1.9-1.6-3.9-2.4-5.9-2.4c-3.2,0-5.8,2-7.3,5.6c-2.8,6.6-9.9,11.2-17.4,11.2c-1.5,0-2.9-0.2-4.3-0.5
		c-3.4-0.9-6.4-0.2-8.4,1.9c-1.5,1.6-2.3,4-2.2,6.7c0.4,8.8-6.2,17.3-14.8,19c-3.1,0.6-5.3,2.2-6.4,4.5c-1.1,2.3-0.9,5.1,0.6,7.8
		c4.2,7.7,1.9,18.3-5.1,23.6C5.3,86,4,88.4,4,90.9c0,2.5,1.4,4.9,4,6.8c7.1,5.1,9.6,15.7,5.6,23.4c-1.4,2.8-1.6,5.6-0.5,7.8
		c1.1,2.3,3.4,3.8,6.5,4.4c8.6,1.5,15.5,9.9,15.2,18.7c-0.1,2.7,0.7,5,2.3,6.6c2,2,5.1,2.7,8.5,1.8C47,160,48.6,159.8,50.2,159.8z"
		/>
</g>
<g>
	<path fill="#FFFFFF" d="M91.9,165.6c-41.7,0-75.6-33.9-75.6-75.6s33.9-75.6,75.6-75.6s75.6,33.9,75.6,75.6S133.5,165.6,91.9,165.6z
		 M91.9,18.5c-39.5,0-71.6,32.1-71.6,71.6c0,39.5,32.1,71.6,71.6,71.6s71.6-32.1,71.6-71.6C163.4,50.6,131.3,18.5,91.9,18.5z"/>
</g>
<g>
	<path fill="#FFFFFF" d="M91.9,157.4c-37.1,0-67.4-30.2-67.4-67.4s30.2-67.4,67.4-67.4s67.4,30.2,67.4,67.4S129,157.4,91.9,157.4z
		 M91.9,26.7c-34.9,0-63.4,28.4-63.4,63.4c0,34.9,28.4,63.4,63.4,63.4S155.2,125,155.2,90C155.2,55.1,126.8,26.7,91.9,26.7z"/>
</g>
<g>
	<path fill="#FFFFFF" d="M100.6,139.7H82.3c-3.2,0-5.7-2.6-5.7-5.7c0-3.2,2.6-5.7,5.7-5.7h3.4v-24.5c-20.9-3.1-22.4-22.6-23.9-41.5
		l-0.1-1.8c0-0.2-0.1-0.4-0.1-0.5h-4.3c-3.2,0-5.7-2.6-5.7-5.7s2.6-5.7,5.7-5.7h5.2c5.6,0,10.2,4.8,10.7,11.1l0.1,1.8
		c1.5,19.9,3.1,28.4,12.4,30.7V59.9h-3.4c-3.2,0-5.7-2.6-5.7-5.7s2.6-5.7,5.7-5.7h8.4c0.5-0.1,0.9-0.1,1.3,0h8.5
		c3.2,0,5.7,2.6,5.7,5.7s-2.6,5.7-5.7,5.7h-3.5v32.3c10.1-1.9,11.8-10.4,13.3-30.5l0.2-2.2c0.5-6.3,5.1-11.1,10.7-11.1h5.2
		c3.2,0,5.7,2.6,5.7,5.7s-2.6,5.7-5.7,5.7h-4.3c0,0.1-0.1,0.3-0.1,0.5l-0.2,2.2c-1.4,19-2.9,38.5-24.7,41.2v24.3h3.5
		c3.2,0,5.7,2.6,5.7,5.7C106.4,137.1,103.8,139.7,100.6,139.7z M82.3,132.2c-1,0-1.7,0.8-1.7,1.7s0.8,1.7,1.7,1.7h18.3
		c1,0,1.7-0.8,1.7-1.7s-0.8-1.7-1.7-1.7h-7.5v-32l1.8-0.1c20.1-1.5,21.4-18.3,22.9-37.7l0.2-2.2c0.2-2.4,1.6-4.2,3.2-4.2h5.2
		c1,0,1.7-0.8,1.7-1.7s-0.8-1.7-1.7-1.7h-5.2c-3.5,0-6.3,3.2-6.7,7.4l-0.2,2.2C113,81.2,111.9,95,95.3,96.6l-2.2,0.2V55.9h7.5
		c1,0,1.7-0.8,1.7-1.7s-0.8-1.7-1.7-1.7l-9,0c-0.1,0-0.2,0-0.3,0c0,0-0.1,0-0.2,0l-0.4,0h-8.6c-1,0-1.7,0.8-1.7,1.7s0.8,1.7,1.7,1.7
		h7.4v40.8l-2.3-0.3c-15.7-2-16.7-15.7-18.2-34.8l-0.1-1.8c-0.3-4.2-3.2-7.4-6.7-7.4h-5.2c-1,0-1.7,0.8-1.7,1.7s0.8,1.7,1.7,1.7h5.2
		c1.6,0,3,1.9,3.2,4.2l0.1,1.8c1.5,19.4,2.8,36.1,22.1,38l1.8,0.2v32H82.3z"/>
</g>
</svg>
